<?xml version="1.0" encoding="UTF-8" standalone="no"?>
<!-- Created with Inkscape (http://www.inkscape.org/) -->

<svg
   version="1.1"
   id="svg2"
   width="567.99738"
   height="396.82556"
   viewBox="0 0 567.99738 396.82556"
   sodipodi:docname="ros-background.svg"
   inkscape:version="1.1.2 (0a00cf5339, 2022-02-04)"
   inkscape:export-filename="/home/yoan/Repos/ros2-introduction/assets/ros-background.png"
   inkscape:export-xdpi="96"
   inkscape:export-ydpi="96"
   xmlns:inkscape="http://www.inkscape.org/namespaces/inkscape"
   xmlns:sodipodi="http://sodipodi.sourceforge.net/DTD/sodipodi-0.dtd"
   xmlns="http://www.w3.org/2000/svg"
   xmlns:svg="http://www.w3.org/2000/svg">
  <defs
     id="defs6">
    <clipPath
       clipPathUnits="userSpaceOnUse"
       id="clipPath937">
      <rect
         style="opacity:0.1;fill:#000000;stroke-width:0.377953;stroke-linecap:round;stroke-linejoin:round"
         id="rect939"
         width="567.99738"
         height="396.82556"
         x="336.83017"
         y="426.38022" />
    </clipPath>
    <clipPath
       clipPathUnits="userSpaceOnUse"
       id="clipPath1484">
      <path
         style="display:inline;opacity:1;fill:#000000;stroke:none;stroke-width:3.17866;stroke-linecap:round;stroke-linejoin:round;stroke-miterlimit:8"
         id="path1486"
         width="564.81836"
         height="393.64734"
         x="338.41968"
         y="427.96933"
         sodipodi:type="rect"
         clip-path="none"
         d="M 338.41968,427.96933 H 903.23804 V 821.61667 H 338.41968 Z" />
    </clipPath>
    <linearGradient
       id="linearGradient4689">
      <stop
         style="stop-color:#5a9fd4;stop-opacity:1;"
         offset="0"
         id="stop4691" />
      <stop
         style="stop-color:#306998;stop-opacity:1;"
         offset="1"
         id="stop4693" />
    </linearGradient>
    <linearGradient
       id="linearGradient4671">
      <stop
         style="stop-color:#ffd43b;stop-opacity:1;"
         offset="0"
         id="stop4673" />
      <stop
         style="stop-color:#ffe873;stop-opacity:1"
         offset="1"
         id="stop4675" />
    </linearGradient>
    <clipPath
       clipPathUnits="userSpaceOnUse"
       id="clipPath1484-3">
      <path
         style="display:inline;opacity:1;fill:#000000;stroke:none;stroke-width:3.17866;stroke-linecap:round;stroke-linejoin:round;stroke-miterlimit:8"
         id="path1486-6"
         width="564.81836"
         height="393.64734"
         x="338.41968"
         y="427.96933"
         sodipodi:type="rect"
         clip-path="none" />
    </clipPath>
    <clipPath
       clipPathUnits="userSpaceOnUse"
       id="clipPath1599">
      <rect
         style="opacity:1;fill:#000000;stroke:none;stroke-width:0.782138;stroke-linecap:round;stroke-linejoin:round"
         id="rect1601"
         width="104.86652"
         height="88.567993"
         x="-25.331278"
         y="11.69032" />
    </clipPath>
  </defs>
  <sodipodi:namedview
     id="namedview4"
     pagecolor="#ffffff"
     bordercolor="#666666"
     borderopacity="1.0"
     inkscape:pageshadow="2"
     inkscape:pageopacity="0.0"
     inkscape:pagecheckerboard="0"
     showgrid="false"
     inkscape:zoom="0.6377913"
     inkscape:cx="174.03812"
     inkscape:cy="156.7911"
     inkscape:window-width="1920"
     inkscape:window-height="992"
     inkscape:window-x="1920"
     inkscape:window-y="25"
     inkscape:window-maximized="1"
     inkscape:current-layer="g1755"
     fit-margin-top="0"
     fit-margin-left="0"
     fit-margin-right="0"
     fit-margin-bottom="0" />
  <g
     inkscape:groupmode="layer"
     inkscape:label="Image"
     id="g8"
     transform="translate(-336.83017,-426.38022)">
    <g
       id="g16746"
       inkscape:export-filename="/home/sedelpeuch/eirlab.png"
       inkscape:export-xdpi="96"
       inkscape:export-ydpi="96">
      <g
         id="g1755"
         transform="matrix(3.0833173,0,0,3.0833173,483.02542,458.39355)"
         style="opacity:0.07">
        <path
           id="path1741-3"
           style="opacity:0.5;fill:#ffffff;fill-opacity:1;fill-rule:nonzero;stroke:none;stroke-width:0.400084"
           d="m 181.66857,95.653926 c 0,24.932054 -19.56181,45.152034 -43.69219,45.152034 -24.12535,0 -43.688872,-20.21998 -43.688872,-45.152034 0,-24.930163 19.563522,-45.15011 43.688872,-45.15011 24.13038,0 43.69219,20.219947 43.69219,45.15011" />
        <g
           id="g2165"
           transform="matrix(1.0589616,0,0,1.0589616,-94.174648,0.88831076)"
           style="opacity:0.5;fill:#ffffff">
          <path
             id="path1737"
             style="fill:#ffffff;fill-opacity:1;fill-rule:nonzero;stroke:none;stroke-width:0.117096"
             d="m 60.615416,-1.8508769 c 0,7.2979214 -5.725316,13.2145729 -12.787756,13.2145729 -7.060989,0 -12.78682,-5.9166515 -12.78682,-13.2145729 0,-7.2965163 5.725831,-13.2150411 12.78682,-13.2150411 7.06244,0 12.787756,5.9185248 12.787756,13.2150411" />
          <path
             id="path1739"
             style="fill:#ffffff;fill-opacity:1;fill-rule:nonzero;stroke:none;stroke-width:0.117096"
             d="m 60.615416,43.182324 c 0,7.297921 -5.725316,13.214573 -12.787756,13.214573 -7.060989,0 -12.78682,-5.916652 -12.78682,-13.214573 0,-7.297921 5.725831,-13.214456 12.78682,-13.214456 7.06244,0 12.787756,5.916535 12.787756,13.214456" />
          <path
             id="path1741"
             style="fill:#ffffff;fill-opacity:1;fill-rule:nonzero;stroke:none;stroke-width:0.117096"
             d="m 60.615416,88.215056 c 0,7.297079 -5.725316,13.215034 -12.787756,13.215034 -7.060989,0 -12.78682,-5.917955 -12.78682,-13.215034 0,-7.296516 5.725831,-13.214455 12.78682,-13.214455 7.06244,0 12.787756,5.917939 12.787756,13.214455" />
          <path
             id="path1743"
             style="fill:#ffffff;fill-opacity:1;fill-rule:nonzero;stroke:none;stroke-width:0.117096"
             d="m 105.23702,43.182324 c 0,7.297921 -5.725899,13.214573 -12.787754,13.214573 -7.061503,0 -12.787287,-5.916652 -12.787287,-13.214573 0,-7.297921 5.725784,-13.214456 12.787287,-13.214456 7.061855,0 12.787754,5.916535 12.787754,13.214456" />
          <path
             id="path1745"
             style="fill:#ffffff;fill-opacity:1;fill-rule:nonzero;stroke:none;stroke-width:0.117096"
             d="m 105.23702,-1.8508769 c 0,7.2979214 -5.725899,13.2145729 -12.787754,13.2145729 -7.061503,0 -12.787287,-5.9166515 -12.787287,-13.2145729 0,-7.2965163 5.725784,-13.2150411 12.787287,-13.2150411 7.061855,0 12.787754,5.9185248 12.787754,13.2150411" />
          <path
             id="path1747"
             style="fill:#ffffff;fill-opacity:1;fill-rule:nonzero;stroke:none;stroke-width:0.117096"
             d="m 149.85804,43.182324 c 0,7.297921 -5.72531,13.214573 -12.78775,13.214573 -7.06151,0 -12.78682,-5.916652 -12.78682,-13.214573 0,-7.297921 5.72531,-13.214456 12.78682,-13.214456 7.06244,0 12.78775,5.916535 12.78775,13.214456" />
          <path
             id="path1749"
             style="fill:#ffffff;fill-opacity:1;fill-rule:nonzero;stroke:none;stroke-width:0.117096"
             d="m 149.85804,-1.8508769 c 0,7.2979214 -5.72531,13.2145729 -12.78775,13.2145729 -7.06151,0 -12.78682,-5.9166515 -12.78682,-13.2145729 0,-7.2965163 5.72531,-13.2150411 12.78682,-13.2150411 7.06244,0 12.78775,5.9185248 12.78775,13.2150411" />
          <path
             id="path1751"
             style="fill:#ffffff;fill-opacity:1;fill-rule:nonzero;stroke:none;stroke-width:0.117096"
             d="m 149.85804,88.215056 c 0,7.297079 -5.72531,13.215034 -12.78775,13.215034 -7.06151,0 -12.78682,-5.917955 -12.78682,-13.215034 0,-7.296516 5.72531,-13.214455 12.78682,-13.214455 7.06244,0 12.78775,5.917939 12.78775,13.214455" />
          <path
             id="path1753"
             style="fill:#ffffff;fill-opacity:1;fill-rule:nonzero;stroke:none;stroke-width:0.117096"
             d="m 105.23702,88.215056 c 0,7.297079 -5.725899,13.215034 -12.787754,13.215034 -7.061503,0 -12.787287,-5.917955 -12.787287,-13.215034 0,-7.296516 5.725784,-13.214455 12.787287,-13.214455 7.061855,0 12.787754,5.917939 12.787754,13.214455" />
        </g>
      </g>
    </g>
  </g>
</svg>
